<?xml version="1.0" encoding="utf-8"?>
<!-- Generator: Adobe Illustrator 19.1.0, SVG Export Plug-In . SVG Version: 6.00 Build 0)  -->
<svg version="1.1" id="Layer_1" xmlns="http://www.w3.org/2000/svg" xmlns:xlink="http://www.w3.org/1999/xlink" x="0px" y="0px"
	 width="16px" height="16px" viewBox="-241 243 16 16" style="enable-background:new -241 243 16 16;" xml:space="preserve">
<style type="text/css">
	.st0{display:none;fill:none;enable-background:new    ;}
</style>
<g>
	<path d="M-225,250c0,2.7,0,5.4,0,8c-5.4,0-10.7,0-16.1,0c0-2.7,0-5.4,0-8c0.7,0.2,1.4,0.4,2,0.7c2,1.1,4.1,2.3,5.8,3.2
		C-230.2,252.4-227.6,251.2-225,250z"/>
	<path d="M-241.1,248.2c0-0.9,0-1.8,0-2.7c5.4,0,10.7,0,16.1,0c0,0.9,0,1.8,0,2.7c-2.7,1.4-5.4,2.8-8.2,4.3
		C-235.8,251.1-238.4,249.7-241.1,248.2z"/>
</g>
<path class="st0" d="z"/>
</svg>
