<?xml version="1.0" encoding="utf-8"?>
<!-- Generator: Adobe Illustrator 19.1.0, SVG Export Plug-In . SVG Version: 6.00 Build 0)  -->
<svg version="1.1" id="Layer_1" xmlns="http://www.w3.org/2000/svg" xmlns:xlink="http://www.w3.org/1999/xlink" x="0px" y="0px"
	 width="16px" height="16px" viewBox="0 0 500 500" style="enable-background:new 0 0 500 500;" xml:space="preserve">
<style type="text/css">
	.st0{fill:#BC7F78;}
	.st1{fill:#3F2D25;}
</style>
<g>
	<path class="st0" d="M343,395.1c15.9,14,9.1,38.6-14.8,53c-17.9,10.8-35.9,21.6-54.1,32c-19.4,11-63-10.8-72.7-30.8
		c-21.5-44.7-33.9-93.3-60.8-135.7c-11.9-18.9-27.3-37.2-28.5-61.6c23,12.5,17.1,41.3,33.1,60.6c4.7-20,3.4-37.6-0.1-54.5
		c-13.9-66.9,28.5-120.3,96.5-117.6c28.5,1.1,47.8,23.6,69.5,39.2c11.3,8.1,14,19.9,7.3,33.2c-5.4,10.7-15.3,11.8-25.4,13.4
		c-9.5,1.5-19.5,3-28.1,7c-14,6.5-18.2,18.5-13,33.3c2.2,6.3,6.5,8.8,14.1,6.7c-7.7-20.7,0.9-23.1,19.5-20.1
		c9.9,1.6,32.9,11,23.3-17.5c31.6,1.7,45.3,18.6,39.4,47.7c-2.7,13.2-6,26.8,10.8,33.9c-2.7,6-5.3,11.9-8,17.9
		c-6.8-4.4-10.5-3.4-13.4,5c-4.8,14-11,27.5-19.1,47.2c0-12.2,0-17.5,0-26.6c-24.2,32.1-38.4,74.9-89.3,63.2c0,2.3,0,3.7,0,5
		C257,445.8,322.1,426.4,343,395.1z M230.7,253.3c-27.2-17.6-44.9-16.1-53.6,4.3C195.7,266.6,212.9,262.4,230.7,253.3z M247,320
		c-0.1,6.6,5.6,6.7,9.6,9.5c6.6-7.1,17.1-11.2,16.5-22.3c-0.2-3.5-5.4-6.7-11.1-13.2C265.2,310.8,255.4,314.5,247,320z"/>
	<path class="st1" d="M359.1,317.2c-16.9-7-13.5-20.6-10.8-33.9c5.9-29.1-7.8-46.1-39.4-47.7c9.5,28.5-13.4,19.1-23.3,17.5
		c-18.6-3-27.3-0.6-19.5,20.1c-7.6,2.1-11.9-0.5-14.1-6.7c-5.3-14.8-1-26.8,13-33.3c8.6-4,18.5-5.4,28.1-7
		c10.2-1.7,20-2.7,25.4-13.4c6.7-13.2,3.9-25.1-7.3-33.2c-21.7-15.6-41-38.1-69.5-39.2c-68-2.7-110.4,50.7-96.5,117.6
		c3.5,16.9,4.8,34.6,0.1,54.5c-16-19.3-10.1-48.1-33.1-60.6c-23.5-41.9-15.5-85-5.8-128.4c8.6-38.6,18.1-75.1,62.3-90.1
		c87.1-29.6,191.4,3.4,219.6,102.1c8.6,30.2,17.5,60,7.8,91.6c-9.4,27.5-18.8,55-28.1,82.6C365,312.1,362.1,314.6,359.1,317.2z"/>
	<path class="st1" d="M343,395.1c-21,31.3-86,50.7-113.7,33.8c0-1.3,0-2.7,0-5c50.9,11.7,65.1-31.1,89.3-63.2c0,9.1,0,14.4,0,26.6
		c8.1-19.7,14.4-33.2,19.1-47.2c2.9-8.4,6.6-9.4,13.4-5C348.5,355,345.8,375.1,343,395.1z"/>
	<path class="st0" d="M367.9,309.6c9.4-27.5,18.8-55,28.1-82.6c20.5,10,10.1,26.6,7,40.1c-4.3,18.7-13.3,35.3-32.8,43.1
		C369.7,310.4,368.7,309.8,367.9,309.6z"/>
	<path class="st1" d="M230.7,253.3c-17.8,9.1-35,13.3-53.6,4.3C185.8,237.2,203.5,235.7,230.7,253.3z"/>
	<path class="st1" d="M247,320c8.4-5.5,18.1-9.2,15-26c5.7,6.5,10.9,9.7,11.1,13.2c0.6,11.2-9.9,15.3-16.5,22.3
		C252.7,326.8,247,326.6,247,320z"/>
</g>
</svg>
